<?xml version="1.0"?>
<svg xmlns="http://www.w3.org/2000/svg" xmlns:xlink="http://www.w3.org/1999/xlink" version="1.1" id="Capa_1" x="0px" y="0px" viewBox="0 0 512 512" style="enable-background:new 0 0 512 512;" xml:space="preserve" width="512px" height="512px" class=""><g><g>
	<g>
		<path d="M231.694,233.376c-6.197-6.196-13.947-10.672-22.416-12.941c-8.465-2.268-17.414-2.268-25.879,0    c-5.335,1.429-8.501,6.911-7.072,12.246c1.429,5.335,6.91,8.506,12.247,7.072c5.078-1.358,10.449-1.362,15.529,0    c5.08,1.361,9.732,4.047,13.449,7.766c1.953,1.952,4.512,2.929,7.071,2.929c2.56,0,5.118-0.977,7.071-2.929    C235.599,243.614,235.599,237.282,231.694,233.376z" data-original="#000000" class="active-path" data-old_color="#ec2b2c" fill="#ec2b2c"/>
	</g>
</g><g>
	<g>
		<path d="M328.599,220.434c-8.465-2.267-17.414-2.267-25.881,0c-8.467,2.27-16.217,6.745-22.414,12.941    c-3.905,3.905-3.905,10.237,0,14.143c1.954,1.953,4.512,2.929,7.072,2.929s5.118-0.977,7.071-2.929    c3.718-3.719,8.369-6.404,13.447-7.766c5.08-1.359,10.451-1.359,15.531,0c5.334,1.432,10.818-1.738,12.246-7.072    C337.1,227.345,333.934,221.863,328.599,220.434z" data-original="#000000" class="active-path" data-old_color="#ec2b2c" fill="#ec2b2c"/>
	</g>
</g><g>
	<g>
		<path d="M284.661,298.669c-2.761-4.783-8.873-6.423-13.66-3.662c-4.557,2.631-9.744,4.021-15.001,4.021s-10.443-1.39-15-4.02    c-4.783-2.764-10.899-1.123-13.659,3.661c-2.762,4.783-1.122,10.898,3.661,13.659c7.592,4.383,16.235,6.699,24.998,6.699    c8.762,0,17.406-2.316,24.999-6.698C285.782,309.568,287.422,303.452,284.661,298.669z" data-original="#000000" class="active-path" data-old_color="#ec2b2c" fill="#ec2b2c"/>
	</g>
</g><g>
	<g>
		<path d="M364.083,322.155c12.092-18.052,19.788-39.284,21.536-62.155h0.38c22.056,0,40-17.944,40-40c0-22.056-17.943-40-39.999-40    v-16.67c32.321-7.601,55.711-36.483,55.711-70.529c0-39.962-32.512-72.473-72.474-72.473c-17.443,0-33.86,6.105-46.81,17.113    C308.548,14.567,283.439,0,256,0c-27.438,0-52.547,14.567-66.427,37.442c-12.95-11.008-29.366-17.113-46.81-17.113    c-39.963,0-72.475,32.511-72.475,72.473c0,34.046,23.391,62.929,55.712,70.529V180c-22.056,0-40,17.944-40,40    c0,22.056,17.944,40,40,40h0.38c1.748,22.871,9.444,44.103,21.535,62.154C84.765,360.242,45.999,428.127,45.999,502    c0,5.522,4.478,10,10,10h400.002c5.522,0,10-4.478,10-10C466.001,428.128,427.234,360.244,364.083,322.155z M126,240    c-11.028,0-19.999-8.972-19.999-20s8.971-20,19.999-20V240z M106,492H66.263c2.063-39.233,16.211-76.191,39.737-106.398V492z     M405.999,220c0,11.028-8.971,20-19.999,20v-40C397.028,200,405.999,208.972,405.999,220z M137.071,144.968    c-26.67-2.872-46.782-25.299-46.782-52.167c0-28.934,23.54-52.473,52.475-52.473c14.751,0,28.477,6.049,38.389,16.729    c-1.845,6.697-2.789,13.594-2.789,20.58c0,2.908,0.166,5.848,0.493,8.738c0.578,5.105,4.904,8.876,9.924,8.876    c0.376,0,0.756-0.021,1.138-0.064c5.487-0.621,9.433-5.573,8.812-11.062c-0.243-2.146-0.366-4.329-0.366-6.488    c0-6.659,1.141-13.212,3.391-19.478c0.022-0.064,0.037-0.129,0.059-0.193C210.061,35.25,231.81,20,256,20    c24.259,0,46.064,15.333,54.26,38.155c1.235,3.442,4.252,5.935,7.865,6.5c3.625,0.568,7.248-0.888,9.476-3.787    c10.029-13.054,25.205-20.54,41.637-20.54c28.934,0,52.474,23.539,52.474,52.473c0,26.868-20.111,49.295-46.781,52.167    c-5.079,0.547-8.93,4.834-8.93,9.942V180h-220v-25.09C146.001,149.802,142.15,145.514,137.071,144.968z M146,250v-50h220v50    c0,25.656-8.831,49.287-23.61,68.019c-0.605,0.577-1.141,1.24-1.598,1.981c-20.193,24.416-50.707,40-84.794,40    c-34.088,0-64.603-15.587-84.795-40.006c-0.455-0.736-0.988-1.397-1.591-1.972C154.832,299.291,146,275.658,146,250z M386.001,492    H126V363.688c10.343-9.702,21.855-18.337,34.405-25.686c21.656,23.505,51.841,39.038,85.598,41.617l0.001,8.23    c0.001,5.522,4.478,9.998,10,9.998c0,0,0.001,0,0.002,0c5.522-0.001,9.999-4.478,9.998-10.002l-0.001-8.227    c33.753-2.58,63.937-18.112,85.592-41.617c12.55,7.35,24.063,15.985,34.406,25.688V492z M406.001,492V385.604    c23.525,30.206,37.673,67.163,39.736,106.396H406.001z" data-original="#000000" class="active-path" data-old_color="#ec2b2c" fill="#ec2b2c"/>
	</g>
</g><g>
	<g>
		<path d="M256.004,406.931c-5.522,0-10,4.478-10,10v0.475c0,5.523,4.478,10,10,10c5.522,0,10-4.478,10-10v-0.475    C266.004,411.409,261.526,406.931,256.004,406.931z" data-original="#000000" class="active-path" data-old_color="#ec2b2c" fill="#ec2b2c"/>
	</g>
</g><g>
	<g>
		<path d="M206.107,106.496l-0.19-0.333c-2.745-4.792-8.856-6.454-13.647-3.708c-4.793,2.745-6.453,8.855-3.708,13.647l0.18,0.316    c1.846,3.23,5.22,5.041,8.691,5.041c1.683,0,3.388-0.425,4.952-1.319C207.181,117.4,208.847,111.291,206.107,106.496z" data-original="#000000" class="active-path" data-old_color="#ec2b2c" fill="#ec2b2c"/>
	</g>
</g><g>
	<g>
		<path d="M326.501,396.363c-20.126,0-36.5,16.374-36.5,36.5c0,20.126,16.374,36.5,36.5,36.5c20.126,0,36.5-16.374,36.5-36.5    C363.001,412.737,346.627,396.363,326.501,396.363z M326.501,449.363c-9.098,0-16.5-7.402-16.5-16.5c0-9.097,7.402-16.5,16.5-16.5    c9.098,0,16.5,7.402,16.5,16.5C343.001,441.961,335.599,449.363,326.501,449.363z" data-original="#000000" class="active-path" data-old_color="#ec2b2c" fill="#ec2b2c"/>
	</g>
</g></g> </svg>
